# xmcd CD database file
#
# Track frame offsets:
#	150
#	20747
#	38477
#	55295
#	74090
#
# Disc length: 1221 seconds
#
# Revision: 0
# Processed by: cddbd v1.5.1PL0 Copyright (c) Steve Scherf et al.
# Submitted via: CDex 1.51
#
DISCID=4304c305
DTITLE=宍戸留美 - Bambi Garden
DYEAR=1996
DGENRE=Pop
TTITLE0=幻の海
TTITLE1=濡れた傘
TTITLE2=Darling
TTITLE3=アッシュ〜レクイエム〜
TTITLE4=HONNEY彗星
EXTD=YEAR: 1996
EXTT0=
EXTT1=
EXTT2=
EXTT3=
EXTT4=
PLAYORDER=
